<svg width="50" height="50" viewBox="0 0 50 50" fill="none" xmlns="http://www.w3.org/2000/svg">
<rect x="0.5" y="0.5" width="49" height="49" rx="14.5" stroke="#19A6DB"/>
<g clip-path="url(#clip0_163_834)">
<g clip-path="url(#clip1_163_834)">
<path fill-rule="evenodd" clip-rule="evenodd" d="M19.8642 20.8325C19.0316 20.8325 18.3567 21.5074 18.3567 22.34C18.3567 23.1726 19.0316 23.8476 19.8642 23.8476C20.6968 23.8476 21.3718 23.1726 21.3718 22.34C21.3718 21.5074 20.6968 20.8325 19.8642 20.8325ZM19.309 22.34C19.309 22.0334 19.5576 21.7849 19.8642 21.7849C20.1708 21.7849 20.4194 22.0334 20.4194 22.34C20.4194 22.6466 20.1708 22.8952 19.8642 22.8952C19.5576 22.8952 19.309 22.6466 19.309 22.34Z" fill="black"/>
<path fill-rule="evenodd" clip-rule="evenodd" d="M23.5135 22.34C23.5135 21.5075 24.1884 20.8325 25.021 20.8325C25.8536 20.8325 26.5286 21.5075 26.5286 22.34C26.5286 23.1726 25.8536 23.8476 25.021 23.8476C24.1884 23.8476 23.5135 23.1726 23.5135 22.34ZM25.021 21.7849C24.7144 21.7849 24.4659 22.0334 24.4659 22.34C24.4659 22.6467 24.7144 22.8952 25.021 22.8952C25.3276 22.8952 25.5762 22.6467 25.5762 22.34C25.5762 22.0334 25.3276 21.7849 25.021 21.7849Z" fill="black"/>
<path fill-rule="evenodd" clip-rule="evenodd" d="M28.0477 11.8453C28.0477 11.5823 27.8345 11.3691 27.5715 11.3691C27.3085 11.3691 27.0953 11.5823 27.0953 11.8453V12.7025C27.0953 13.0707 26.7968 13.3691 26.4286 13.3691L25.5715 13.3691C24.4259 13.3691 23.4857 14.2486 23.3892 15.3691H21.0953C18.7283 15.3691 16.8096 17.2879 16.8096 19.6549V21.7501C16.8096 24.117 18.7284 26.0358 21.0953 26.0358H22.6557C22.5786 26.1216 22.5085 26.2114 22.4465 26.3045C22.2085 26.6616 22.0717 27.0933 22.1407 27.5407C22.2111 27.9969 22.4844 28.3982 22.9306 28.7026C23.1568 28.8569 23.3988 28.9854 23.6535 29.0838C23.6351 29.1074 23.6177 29.1316 23.6013 29.1563C23.471 29.3517 23.3855 29.6043 23.4278 29.8782C23.4713 30.1609 23.6399 30.3943 23.8817 30.5593C24.1636 30.7516 24.4986 30.8664 24.8603 30.8664C25.222 30.8664 25.5569 30.7516 25.8389 30.5593C26.0807 30.3943 26.2492 30.1609 26.2928 29.8782C26.335 29.6043 26.2496 29.3517 26.1193 29.1563C26.1024 29.131 26.0845 29.1062 26.0657 29.0819C26.3186 28.9838 26.559 28.856 26.7838 28.7026C27.23 28.3982 27.5033 27.9969 27.5737 27.5407C27.6427 27.0933 27.506 26.6616 27.2679 26.3045C27.2059 26.2114 27.1358 26.1216 27.0587 26.0358H28.6191C30.986 26.0358 32.9048 24.117 32.9048 21.7501V19.6549C32.9048 17.2879 30.986 15.3691 28.6191 15.3691H24.3479C24.4396 14.7758 24.9525 14.3215 25.5715 14.3215H26.4286C27.3228 14.3215 28.0477 13.5966 28.0477 12.7025V11.8453ZM21.0953 16.3215C19.2543 16.3215 17.762 17.8139 17.762 19.6549V21.7501C17.762 23.591 19.2543 25.0834 21.0953 25.0834H28.6191C30.46 25.0834 31.9524 23.591 31.9524 21.7501V19.6549C31.9524 17.8139 30.46 16.3215 28.6191 16.3215H21.0953ZM23.082 27.3955C23.1052 27.5463 23.1985 27.7325 23.4673 27.9159C23.883 28.1995 24.3568 28.3568 24.8572 28.3568C25.3576 28.3568 25.8314 28.1995 26.2471 27.9159C26.5159 27.7325 26.6092 27.5463 26.6324 27.3955C26.657 27.2359 26.6144 27.0412 26.4755 26.8328C26.1912 26.4063 25.5714 26.0359 24.8572 26.0359C24.143 26.0359 23.5232 26.4063 23.2389 26.8328C23.1 27.0412 23.0574 27.2359 23.082 27.3955ZM24.4184 29.7725C24.3905 29.7535 24.3768 29.7393 24.3706 29.7311C24.3727 29.723 24.3784 29.7075 24.3937 29.6846C24.4625 29.5813 24.6409 29.4645 24.8603 29.4645C25.0797 29.4645 25.258 29.5813 25.3269 29.6846C25.3421 29.7075 25.3479 29.723 25.35 29.7311C25.3437 29.7393 25.3301 29.7535 25.3022 29.7725C25.1657 29.8657 25.0156 29.9141 24.8603 29.9141C24.7049 29.9141 24.5549 29.8657 24.4184 29.7725ZM25.3529 29.7268C25.3544 29.7245 25.3547 29.7233 25.3546 29.7233C25.3545 29.7232 25.3542 29.7237 25.3538 29.7246C25.3535 29.7252 25.3532 29.7259 25.3529 29.7268Z" fill="black"/>
</g>
<g clip-path="url(#clip2_163_834)">
<rect x="43" y="35.5" width="7" height="22" rx="3.5" transform="rotate(90 43 35.5)" fill="#C7CFD6" fill-opacity="0.18"/>
<rect width="7" height="12" rx="3.5" transform="matrix(-4.37114e-08 1 1 4.37114e-08 7 35.5)" fill="#19A6DB"/>
</g>
</g>
<defs>
<clipPath id="clip0_163_834">
<rect width="36" height="32.0234" fill="white" transform="translate(7 10.9883)"/>
</clipPath>
<clipPath id="clip1_163_834">
<rect width="20" height="20" fill="white" transform="translate(15 10.9883)"/>
</clipPath>
<clipPath id="clip2_163_834">
<rect width="8.02339" height="36" fill="white" transform="translate(43 34.9883) rotate(90)"/>
</clipPath>
</defs>
</svg>
