<svg width="50" height="50" viewBox="0 0 50 50" fill="none" xmlns="http://www.w3.org/2000/svg">
<rect x="0.5" y="0.5" width="49" height="49" rx="14.5" stroke="#19A6DB"/>
<g clip-path="url(#clip0_170_455)">
<g clip-path="url(#clip1_170_455)">
<path fill-rule="evenodd" clip-rule="evenodd" d="M16.1309 16.7205C16.1309 14.5372 17.9008 12.7673 20.0841 12.7673H25.382C27.5653 12.7673 29.3352 14.5372 29.3352 16.7205C29.3352 18.9038 27.5653 20.6737 25.382 20.6737H23.7209C23.3061 20.6737 22.9099 20.8455 22.6263 21.1482L21.4409 22.4135C21.1686 22.7042 20.6809 22.5114 20.6809 22.1131V21.2706C20.6809 20.941 20.4137 20.6737 20.0841 20.6737C17.9008 20.6737 16.1309 18.9038 16.1309 16.7205ZM20.0841 11.7673C17.3485 11.7673 15.1309 13.985 15.1309 16.7205C15.1309 19.3204 17.1339 21.4524 19.6809 21.6576V22.1131C19.6809 22.3009 19.714 22.4748 19.7733 22.632C19.7058 22.7172 19.6655 22.825 19.6655 22.9422C19.6655 25.6633 21.8093 27.8954 24.4855 27.8954H26.4316C26.4706 27.8954 26.5112 27.9115 26.5433 27.9457L28.3158 29.8378C29.0622 30.6344 30.3196 30.0558 30.3196 29.0216V27.8878C32.8687 27.7437 34.8698 25.5712 34.8698 22.9422C34.8698 20.2622 32.7904 18.0566 30.1709 17.9905C30.2781 17.5852 30.3352 17.1595 30.3352 16.7205C30.3352 13.985 28.1175 11.7673 25.382 11.7673H20.0841ZM29.8158 18.931C29.0036 20.557 27.3232 21.6737 25.382 21.6737H23.7209C23.5827 21.6737 23.4506 21.731 23.356 21.8319L22.1707 23.0971C21.7563 23.5395 21.1897 23.6402 20.7018 23.4904C20.9603 25.4247 22.5675 26.8954 24.4855 26.8954H26.4316C26.7521 26.8954 27.0554 27.0297 27.273 27.262L29.0456 29.1541C29.0772 29.1878 29.1055 29.1993 29.1275 29.2035C29.1523 29.2083 29.1823 29.2059 29.2131 29.1931C29.2721 29.1686 29.3196 29.1137 29.3196 29.0216V27.6326C29.3196 27.2399 29.6323 26.8954 30.0498 26.8954C32.1453 26.8954 33.8698 25.1399 33.8698 22.9422C33.8698 20.7445 32.1453 18.989 30.0498 18.989C29.9652 18.989 29.8856 18.968 29.8158 18.931ZM28.1536 15.4075C28.3489 15.6028 28.3489 15.9194 28.1536 16.1146L26.6756 17.5927C26.0898 18.1784 25.1401 18.1784 24.5543 17.5927L23.7834 16.8217C23.5881 16.6265 23.2715 16.6265 23.0763 16.8217L22.3054 17.5927C21.7196 18.1784 20.7698 18.1784 20.184 17.5927L19.4131 16.8217C19.2179 16.6265 18.9013 16.6265 18.706 16.8217L17.5967 17.931C17.4015 18.1263 17.0849 18.1263 16.8896 17.931C16.6943 17.7358 16.6943 17.4192 16.8896 17.2239L17.9989 16.1146C18.5847 15.5289 19.5344 15.5289 20.1202 16.1146L20.8911 16.8856C21.0864 17.0808 21.403 17.0808 21.5983 16.8856L22.3692 16.1146C22.955 15.5288 23.9047 15.5289 24.4905 16.1146L25.2614 16.8856C25.4567 17.0808 25.7732 17.0808 25.9685 16.8856L27.4465 15.4075C27.6418 15.2123 27.9584 15.2123 28.1536 15.4075ZM29.4195 23.7397C29.6148 23.9349 29.9314 23.9349 30.1266 23.7396L31.6046 22.2616C31.7999 22.0664 32.1165 22.0664 32.3117 22.2616C32.507 22.4569 32.507 22.7735 32.3117 22.9687L30.8337 24.4468C30.2479 25.0325 29.2982 25.0325 28.7124 24.4468L27.9415 23.6758C27.7462 23.4806 27.4296 23.4806 27.2344 23.6758L26.4635 24.4468C25.8777 25.0325 24.9279 25.0325 24.3422 24.4468L23.2329 23.3375C23.0376 23.1422 23.0376 22.8256 23.2329 22.6304C23.4281 22.4351 23.7447 22.4351 23.94 22.6304L25.0493 23.7396C25.2445 23.9349 25.5611 23.9349 25.7564 23.7396L26.5273 22.9687C27.1131 22.3829 28.0628 22.3829 28.6486 22.9687L29.4195 23.7397Z" fill="black"/>
</g>
<g clip-path="url(#clip2_170_455)">
<rect width="7" height="13" rx="3.5" transform="matrix(4.37114e-08 1 1 -4.37114e-08 7 35.5)" fill="#19A6DB"/>
<rect x="43" y="35.5" width="7" height="21" rx="3.5" transform="rotate(90 43 35.5)" fill="#C7CFD6" fill-opacity="0.18"/>
</g>
</g>
<defs>
<clipPath id="clip0_170_455">
<rect width="36" height="32.0234" fill="white" transform="translate(7 10.9883)"/>
</clipPath>
<clipPath id="clip1_170_455">
<rect width="20" height="20" fill="white" transform="translate(15 10.9883)"/>
</clipPath>
<clipPath id="clip2_170_455">
<rect width="8.02339" height="36" fill="white" transform="matrix(4.37114e-08 1 1 -4.37114e-08 7 34.9883)"/>
</clipPath>
</defs>
</svg>
