<svg width="24" height="31" viewBox="0 0 24 31" fill="none" xmlns="http://www.w3.org/2000/svg">
<path d="M4.5 0C3.30653 0 2.16193 0.489909 1.31802 1.36195C0.474105 2.234 0 3.41674 0 4.65V26.35C0 27.5833 0.474106 28.766 1.31802 29.638C2.16193 30.5101 3.30652 31 4.5 31H19.5C20.6935 31 21.8381 30.5101 22.682 29.638C23.5259 28.766 24 27.5833 24 26.35V24.8C24 23.944 23.3284 23.25 22.5 23.25C21.6716 23.25 21 23.944 21 24.8V26.35C21 26.7611 20.842 27.1553 20.5607 27.446C20.2794 27.7367 19.8978 27.9 19.5 27.9H4.5C4.10218 27.9 3.72064 27.7367 3.43934 27.446C3.15803 27.1553 3 26.7611 3 26.35V4.65C3 4.23891 3.15803 3.84467 3.43934 3.55398C3.72064 3.2633 4.10217 3.1 4.5 3.1H19.5C19.8978 3.1 20.2794 3.2633 20.5607 3.55398C20.842 3.84467 21 4.23891 21 4.65V6.2C21 7.05604 21.6716 7.75 22.5 7.75C23.3284 7.75 24 7.05604 24 6.2V4.65C24 3.41674 23.5259 2.234 22.682 1.36195C21.8381 0.489909 20.6935 0 19.5 0H4.5Z" fill="#19A6DB"/>
<path d="M19.0607 9.75398C18.4749 9.14867 17.5251 9.14867 16.9393 9.75398C16.3536 10.3593 16.3536 11.3407 16.9393 11.946L18.8787 13.95H12C11.1716 13.95 10.5 14.644 10.5 15.5C10.5 16.356 11.1716 17.05 12 17.05H18.8787L16.9393 19.054C16.3536 19.6593 16.3536 20.6407 16.9393 21.246C17.5251 21.8513 18.4749 21.8513 19.0607 21.246L23.5607 16.596C24.1464 15.9907 24.1464 15.0093 23.5607 14.404L19.0607 9.75398Z" fill="#19A6DB"/>
</svg>
