<svg width="38" height="32" viewBox="0 0 38 32" fill="none" xmlns="http://www.w3.org/2000/svg">
<path d="M6.08934 26.4521C9.36008 29.2572 13.9358 31 19 31C24.0642 31 28.6399 29.2572 31.9107 26.4521C30.2192 21.8481 25.0788 18.5 19 18.5C12.9212 18.5 7.78077 21.8481 6.08934 26.4521Z" fill="black"/>
<path d="M6.08934 26.4521C9.36008 29.2572 13.9358 31 19 31C24.0642 31 28.6399 29.2572 31.9107 26.4521M6.08934 26.4521C2.93953 23.7507 1 20.0641 1 16C1 7.71573 9.05887 1 19 1C28.9411 1 37 7.71573 37 16C37 20.0641 35.0605 23.7507 31.9107 26.4521M6.08934 26.4521C7.78077 21.8481 12.9212 18.5 19 18.5C25.0788 18.5 30.2192 21.8481 31.9107 26.4521M25 9.75C25 12.5114 22.3137 14.75 19 14.75C15.6863 14.75 13 12.5114 13 9.75C13 6.98858 15.6863 4.75 19 4.75C22.3137 4.75 25 6.98858 25 9.75Z" stroke="#19A6DB" stroke-width="1.5" stroke-linejoin="round"/>
</svg>
